<svg xmlns="http://www.w3.org/2000/svg" version="1.1" xmlns:xlink="http://www.w3.org/1999/xlink" xmlns:svgjs="http://svgjs.dev/svgjs" width="100%" height="100%" viewBox="0 0 1000 600"><rect width="1000" height="600" x="0" y="0" fill="#ffffff"/><g><rect width="333.3333333333333" height="333.3333333333333" rx="13.333333333333334" ry="13.333333333333334" y="157.20938526200837" fill="#" transform="matrix(0.9260140676074747,0,0,0.9260140676074747,0,0.08622245837561593)" x="134.98718261718753"/><path d="M352.496267686116 310.0257066586368L352.496267686116 318.1277878046943Q352.496267686116 336.5123266743417 346.64889413727934 349.7928021920385Q340.80152058844277 363.0732777097353 330.2712927992242 370.55593369172107L330.2712927992242 370.55593369172107L352.91747679768474 388.32104739729675L341.5200537787659 398.8760521930782L314.7608866908694 377.61738056213824Q308.492304030464 379.1783319755988 301.5299651862984 379.1783319755988L301.5299651862984 379.1783319755988Q286.53987621576385 379.1783319755988 274.9690141509049 371.8195610264273Q263.3733750794831 364.46079007725575 256.98090738626337 350.8334364676789Q250.56366268648082 337.20608285810204 250.39022364054074 319.26753010658626L250.39022364054074 319.26753010658626L250.39022364054074 310.1000376783254Q250.39022364054074 291.81460683492946 256.7579143271976 277.7908211203467Q263.10082800729157 263.767035405764 274.74602109183905 256.33393343690386Q286.36643716982377 248.87605446148086 301.3565261403583 248.87605446148086L301.3565261403583 248.87605446148086Q316.693493202773 248.87605446148086 328.31390928075774 256.2843794237781Q339.93432535874234 263.6927043860754 346.20290801914774 277.5678280612809Q352.496267686116 291.46772874304935 352.496267686116 310.0257066586368L352.496267686116 310.0257066586368ZM335.77178825618074 319.3418611262748L335.77178825618074 309.9265986323853Q335.77178825618074 287.5529617061164 326.82728888698574 275.38745148374863Q317.9075665243535 263.2467182679437 301.3565261403583 263.2467182679437L301.3565261403583 263.2467182679437Q285.5983499663749 263.2467182679437 276.4804115512398 275.31312046406003Q267.3872501426676 287.3795226601763 267.1147030704761 308.8116333370563L267.1147030704761 308.8116333370563L267.1147030704761 318.1277878046943Q267.1147030704761 339.9067765734545 276.23264148561117 352.4439418942652Q285.32580289418337 364.981107215076 301.5299651862984 364.981107215076Q317.73412747841354 364.981107215076 326.6042958279199 353.1872520911513Q335.4992411839892 341.3933969672265 335.77178825618074 319.3418611262748L335.77178825618074 319.3418611262748Z " fill="#ffffff" transform="matrix(0.9260140676074747,0,0,0.9260140676074747,0,0.08622245837561593)"/><path d="M650.3210460527722 313.0181134697906L650.3210460527722 320.8473231753545Q650.3210460527722 338.6126858711599 644.6706072438637 351.44588587783335Q639.0201684349553 364.2790858845067 628.844590071455 371.5097321569235L628.844590071455 371.5097321569235L650.7280691873121 388.6765314195818L639.7145020174058 398.8760523204081L613.856561705452 378.3333552948002Q607.7990997620035 379.84173514633085 601.0712467734303 379.84173514633085L601.0712467734303 379.84173514633085Q586.586011691271 379.84173514633085 575.4048467600834 372.73080156054357Q564.19973929157 365.6198679747562 558.0225646614921 352.4514724455204Q551.8214474940884 339.2830769162846 551.6538497328072 321.9486798923451L551.6538497328072 321.9486798923451L551.6538497328072 313.0899410817683Q551.6538497328072 295.4203485352664 557.8070818255592 281.86887240881646Q563.9363713809854 268.31739628236653 575.1893639241505 261.13463508460154Q586.4184139299897 253.9279313495107 600.9036490121491 253.9279313495107L600.9036490121491 253.9279313495107Q615.7240796168709 253.9279313495107 626.9531296227102 261.0867500099498Q638.1821796285493 268.2455686703889 644.2396415719978 281.6533895728835Q650.3210460527722 295.08515301270404 650.3210460527722 313.0181134697906L650.3210460527722 313.0181134697906ZM634.159833357801 322.0205075043227L634.159833357801 312.92234332048713Q634.159833357801 291.3022321152145 625.5165773831571 279.5464462882058Q616.8972639458392 267.814602998523 600.9036490121491 267.814602998523L600.9036490121491 267.814602998523Q585.6761952728874 267.814602998523 576.8653415369623 279.47461867622815Q568.0784303383631 291.1346343539333 567.8150624277783 311.8449291408224L567.8150624277783 311.8449291408224L567.8150624277783 320.8473231753545Q567.8150624277783 341.89281348480586 576.6259161637034 354.0077373717028Q585.4128273623027 366.1226612585997 601.0712467734303 366.1226612585997Q616.7296661845579 366.1226612585997 625.3010945472241 354.7260134914793Q633.8964654472162 343.3293657243589 634.159833357801 322.0205075043227L634.159833357801 322.0205075043227ZM729.3553617655128 378.165757533519L729.0201662429505 369.1633634989869Q719.9220020591148 379.84173514633085 702.3242371245907 379.84173514633085L702.3242371245907 379.84173514633085Q687.7671744304536 379.84173514633085 680.1534475608229 371.3900194702941Q672.539720691192 362.9383037942573 672.4439505418883 346.34612542742013L672.4439505418883 346.34612542742013L672.4439505418883 287.08834554585906L688.0305423410383 287.08834554585906L688.0305423410383 345.9391022928802Q688.0305423410383 366.6254545424433 704.8621460811343 366.6254545424433L704.8621460811343 366.6254545424433Q722.6993363889175 366.6254545424433 728.5892005710847 353.3373463265781L728.5892005710847 353.3373463265781L728.5892005710847 287.08834554585906L744.1518498329089 287.08834554585906L744.1518498329089 378.165757533519L729.3553617655128 378.165757533519ZM844.9259894375515 332.29185601712675L844.9259894375515 333.6326381073761Q844.9259894375515 354.5105306555464 835.3250319698724 367.17613290093857Q825.724074502193 379.84173514633085 809.5628618072218 379.84173514633085L809.5628618072218 379.84173514633085Q792.30029239526 379.84173514633085 782.8908752261879 367.65498364745633L782.8908752261879 367.65498364745633L782.1247140317597 378.165757533519L767.8070767108815 378.165757533519L767.8070767108815 248.87605597374932L783.3936685100315 248.87605597374932L783.3936685100315 297.0963261480782Q792.8030856791037 285.4123679330472 809.3952640459407 285.4123679330472Q825.9874424127778 285.4123679330472 835.4447446565017 297.95825749181006Q844.9259894375515 310.480204513247 844.9259894375515 332.29185601712675L844.9259894375515 332.29185601712675ZM829.3393976384015 331.8608903452607L829.3393976384015 331.8608903452607Q829.3393976384015 315.9630455608743 823.2101080829754 307.29584704890453Q817.0568759902234 298.62864853693475 805.5165729991476 298.62864853693475L805.5165729991476 298.62864853693475Q790.1215214986047 298.62864853693475 783.3936685100315 312.92234332048713L783.3936685100315 312.92234332048713L783.3936685100315 352.33175975889094Q790.5524871704705 366.6254545424433 805.6841707604289 366.6254545424433L805.6841707604289 366.6254545424433Q816.8892782289423 366.6254545424433 823.1143379336719 357.95825603047354Q829.3393976384015 349.29105751850375 829.3393976384015 331.8608903452607ZM881.4383588595234 287.08834554585906L881.4383588595234 378.165757533519L865.8757095976993 378.165757533519L865.8757095976993 287.08834554585906L881.4383588595234 287.08834554585906ZM864.6067551194275 262.9303253840428L864.6067551194275 262.9303253840428Q864.6067551194275 259.1474044865532 866.9291812400382 256.53766791803196Q869.2516073606488 253.9279313495107 873.8006894525666 253.9279313495107Q878.3258290071586 253.9279313495107 880.6961402024211 256.53766791803196Q883.0425088603578 259.1474044865532 883.0425088603578 262.9303253840428Q883.0425088603578 266.71324628153235 880.6961402024211 269.25115523807597Q878.3258290071586 271.7651216572938 873.8006894525666 271.7651216572938Q869.2516073606488 271.7651216572938 866.9291812400382 269.25115523807597Q864.6067551194275 266.71324628153235 864.6067551194275 262.9303253840428ZM911.9172088753729 265.0372686687205L927.4798581371971 265.0372686687205L927.4798581371971 287.08834554585906L944.5030021759 287.08834554585906L944.5030021759 299.1314418207783L927.4798581371971 299.1314418207783L927.4798581371971 355.611887372537Q927.4798581371971 361.0707858828383 929.7543991831559 363.8241776753149Q932.0289402291149 366.5536269304656 937.5117812767422 366.5536269304656L937.5117812767422 366.5536269304656Q940.1933454572412 366.5536269304656 944.9100253104401 365.5480403627786L944.9100253104401 365.5480403627786L944.9100253104401 378.165757533519Q938.780735755014 379.84173514633085 932.9626991848244 379.84173514633085L932.9626991848244 379.84173514633085Q922.5237529107393 379.84173514633085 917.2324521617192 373.54484782962356Q911.9172088753729 367.2240179755904 911.9172088753729 355.611887372537L911.9172088753729 355.611887372537L911.9172088753729 299.1314418207783L895.3489730458617 299.1314418207783L895.3489730458617 287.08834554585906L911.9172088753729 287.08834554585906L911.9172088753729 265.0372686687205Z " fill="black" transform="matrix(0.9260140676074747,0,0,0.9260140676074747,0,0.08622245837561593)"/></g></svg>